<svg xmlns="http://www.w3.org/2000/svg" version="1.1" xmlns:xlink="http://www.w3.org/1999/xlink" xmlns:svgjs="http://svgjs.com/svgjs" width="1920" height="1080" preserveAspectRatio="none" viewBox="0 0 1920 1080">
    <g mask="url(&quot;#SvgjsMask1004&quot;)" fill="none">
        <rect width="1920" height="1080" x="0" y="0" fill="rgba(235, 235, 235, 1)"></rect>
        <path d="M0,698.568C130.413,702.315,179.935,520.005,281.797,438.484C369.558,368.248,494.703,348.187,555.747,253.801C620.418,153.808,651.6,26.06,623.353,-89.625C595.865,-202.201,477.149,-260.49,407.55,-353.144C330.992,-455.062,309.49,-606.888,194.106,-661.063C76.864,-716.111,-71.393,-692.953,-185.445,-631.569C-292.423,-573.992,-338.092,-450.009,-396.231,-343.336C-443.247,-257.07,-485.221,-168.686,-491.171,-70.62C-496.81,22.322,-466.82,110.83,-428.947,195.893C-390.759,281.664,-332.524,351.167,-271.58,422.586C-186.069,522.794,-131.68,694.785,0,698.568" fill="#999999"></path>
        <path d="M1920 1702.72C2083.35 1704.373 2248.951 1893.9389999999999 2388.307 1808.699 2526.601 1724.109 2454.968 1501.063 2502.877 1346.191 2542.82 1217.07 2637.941 1110.532 2646.016 975.615 2655.2200000000003 821.827 2651.006 650.418 2551.563 532.747 2451.9139999999998 414.831 2282.467 388.922 2129.955 364.957 1991.932 343.26800000000003 1858.9279999999999 380.006 1720.99 402.23400000000004 1561.357 427.95799999999997 1377.034 397.144 1257.1190000000001 505.61 1135.3890000000001 615.7180000000001 1106.319 798.277 1101.7469999999998 962.353 1097.473 1115.737 1172.299 1252.833 1232.3609999999999 1394.034 1294.114 1539.21 1313.8200000000002 1734.67 1457.747 1799.28 1604.32 1865.078 1759.344 1701.094 1920 1702.72" fill="#ffffff"></path>
    </g>
    <defs>
        <mask id="SvgjsMask1004">
            <rect width="1920" height="1080" fill="#ffffff"></rect>
        </mask>
    </defs>
</svg>